<?xml version="1.0" encoding="utf-8"?><svg version="1.1" id="Layer_1" xmlns="http://www.w3.org/2000/svg" xmlns:xlink="http://www.w3.org/1999/xlink" x="0px" y="0px" viewBox="0 0 122.88 90.332" enable-background="new 0 0 122.88 90.332" xml:space="preserve"><g><path fill-rule="evenodd" clip-rule="evenodd" fill="#262626" d="M19.962,0h82.962c1.578,0,3.023,0.653,4.07,1.7l0,0l0.008,0.007 l0.007,0.009l0.009,0.007c1.046,1.054,1.691,2.492,1.691,4.069v11.784h5.303c2.443,0,4.66,1.004,6.262,2.606 c1.608,1.608,2.606,3.833,2.606,6.265v37.439c0,2.434-1.004,4.652-2.61,6.26c-0.122,0.121-0.249,0.236-0.38,0.342 c-1.569,1.404-3.637,2.268-5.878,2.268h-5.303v11.791c0,1.592-0.653,3.037-1.7,4.086c-1.045,1.045-2.492,1.699-4.085,1.699H19.962 c-1.578,0-3.023-0.648-4.078-1.699l-0.007-0.01l-0.009-0.008l-0.007-0.006c-1.047-1.055-1.693-2.492-1.693-4.07V72.756H8.871 c-2.432,0-4.657-0.998-6.265-2.607C1.004,68.547,0,66.332,0,63.887V26.447c0-2.446,0.998-4.664,2.602-6.269 c0.122-0.122,0.249-0.237,0.382-0.344c1.569-1.402,3.633-2.258,5.887-2.258h5.297V5.777c0.016-1.592,0.662-3.04,1.709-4.084 c0.061-0.063,0.122-0.124,0.192-0.178C17.1,0.577,18.468,0,19.962,0L19.962,0L19.962,0z M52.729,7.431 c2.056,0,3.724,1.669,3.724,3.724c0,2.057-1.668,3.727-3.724,3.727c-2.057,0-3.725-1.669-3.725-3.727 C49.004,9.1,50.671,7.431,52.729,7.431L52.729,7.431z M39.558,7.431c2.055,0,3.724,1.669,3.724,3.724 c0,2.057-1.669,3.727-3.724,3.727c-2.057,0-3.727-1.669-3.727-3.727C35.831,9.1,37.5,7.431,39.558,7.431L39.558,7.431z M26.387,7.431c2.055,0,3.724,1.669,3.724,3.724c0,2.057-1.669,3.727-3.724,3.727c-2.057,0-3.727-1.669-3.727-3.727 C22.66,9.1,24.33,7.431,26.387,7.431L26.387,7.431z M8.873,22.378h105.154c2.24,0,4.068,1.894,4.068,4.069v37.439 c0,2.174-1.894,4.068-4.068,4.068H8.873c-2.175,0-4.069-1.828-4.069-4.068V26.447C4.804,24.208,6.633,22.378,8.873,22.378 L8.873,22.378z M103.485,72.756H19.408v0.102v11.674v0.002v0.027l0.003,0.027l0.002,0.027l0.002,0.002l0.003,0.027l0.005,0.027 h0.002l0.005,0.023h0.002l0.007,0.027h0.001l0.008,0.025h0.001l0.009,0.023h0.001l0.011,0.025h0.002 c0.025,0.047,0.052,0.09,0.086,0.127l0,0l0.009,0.008c0.098,0.1,0.229,0.154,0.393,0.154h82.962l0.041-0.002 c0.306,0,0.553-0.246,0.553-0.551V72.857c0-0.029-0.013-0.055-0.032-0.074V72.756L103.485,72.756z"/><path fill="#FF0000" d="M23.749,49.383l7.328-0.459c0.157,1.186,0.483,2.094,0.972,2.711c0.797,1.006,1.931,1.512,3.408,1.512 c1.099,0,1.948-0.256,2.542-0.773c0.599-0.518,0.896-1.117,0.896-1.797c0-0.646-0.279-1.229-0.843-1.74s-1.878-0.988-3.943-1.447 c-3.385-0.756-5.793-1.769-7.235-3.031c-1.455-1.256-2.181-2.861-2.181-4.815c0-1.28,0.372-2.49,1.117-3.629 c0.744-1.146,1.861-2.042,3.356-2.693c1.495-0.651,3.542-0.977,6.142-0.977c3.193,0,5.624,0.593,7.299,1.786 c1.675,1.187,2.669,3.077,2.989,5.67l-7.259,0.43c-0.192-1.134-0.599-1.959-1.215-2.472c-0.622-0.518-1.477-0.773-2.565-0.773 c-0.896,0-1.576,0.192-2.03,0.57c-0.454,0.378-0.68,0.843-0.68,1.39c0,0.396,0.186,0.75,0.552,1.07 c0.355,0.332,1.216,0.634,2.577,0.919c3.374,0.727,5.787,1.465,7.241,2.21c1.459,0.745,2.524,1.664,3.187,2.769 c0.663,1.1,0.995,2.333,0.995,3.7c0,1.6-0.442,3.076-1.326,4.432c-0.89,1.35-2.123,2.379-3.716,3.076 c-1.588,0.697-3.588,1.047-6.008,1.047c-4.246,0-7.188-0.82-8.823-2.455C24.889,53.979,23.964,51.9,23.749,49.383L23.749,49.383z M72.471,53.984c0.959,0.668,1.588,1.092,1.884,1.262c0.437,0.25,1.036,0.541,1.78,0.871L74,60.439 c-1.076-0.523-2.146-1.141-3.199-1.861c-1.058-0.721-1.797-1.262-2.216-1.623c-1.704,0.738-3.838,1.111-6.409,1.111 c-3.798,0-6.793-0.988-8.986-2.967c-2.594-2.338-3.891-5.623-3.891-9.858c0-4.112,1.134-7.305,3.402-9.584 c2.268-2.274,5.432-3.414,9.503-3.414c4.146,0,7.346,1.111,9.603,3.338c2.257,2.222,3.385,5.409,3.385,9.55 C75.192,48.818,74.285,51.768,72.471,53.984L72.471,53.984z M66.556,50.023c0.616-1.1,0.925-2.746,0.925-4.938 c0-2.519-0.472-4.315-1.408-5.397c-0.941-1.076-2.233-1.617-3.885-1.617c-1.541,0-2.786,0.552-3.74,1.652 c-0.959,1.099-1.437,2.821-1.437,5.159c0,2.728,0.465,4.642,1.396,5.74c0.937,1.1,2.216,1.652,3.839,1.652 c0.523,0,1.018-0.053,1.483-0.15c-0.652-0.629-1.676-1.217-3.077-1.775l1.21-2.773c0.686,0.123,1.221,0.279,1.599,0.459 c0.384,0.182,1.129,0.658,2.239,1.432C65.962,49.645,66.247,49.83,66.556,50.023L66.556,50.023z M79.345,32.662h7.712v18.844 h12.074v6.143H79.345V32.662L79.345,32.662z"/></g></svg>